/* XPM */
static char *d22e4b0a46d44848920ed003143941efAq3hYXGPbjrmvcEy[] = {
/* columns rows colors chars-per-pixel */
"32 32 83 1 ",
"  c None",
". c #5E002E",
"X c #5F002E",
"o c #78002F",
"O c #600039",
"+ c #61003F",
"@ c #610040",
"# c #630049",
"$ c #63004E",
"% c #700045",
"& c #640053",
"* c #660052",
"= c #650058",
"- c #65005B",
"; c #65005C",
": c #65005F",
"> c #68006E",
", c #690078",
"< c #930031",
"1 c #940033",
"2 c #980040",
"3 c #830051",
"4 c #860052",
"5 c #880052",
"6 c #940054",
"7 c #9D0052",
"8 c #9D0054",
"9 c #A40057",
"0 c #AE0055",
"q c #BA0056",
"w c #9F0061",
"e c #A1006A",
"r c #D5025F",
"t c #F8005C",
"y c #F8005D",
"u c #F8015E",
"i c #FA086F",
"p c #6B0080",
"a c #6B0083",
"s c #6D0080",
"d c #6B0085",
"f c #6C0087",
"g c #6B008A",
"h c #750082",
"j c #6D0093",
"k c #6D0095",
"l c #7F00AF",
"z c #6F00B2",
"x c #6F00B4",
"c c #6F00B8",
"v c #6F00BB",
"b c #7000C2",
"n c #7000CA",
"m c #7100CD",
"M c #7100CE",
"N c #7100D0",
"B c #7100D1",
"V c #7100D2",
"C c #9E008D",
"Z c #850094",
"A c #A50088",
"S c #A4008E",
"D c #A7008F",
"F c #AA018F",
"G c #A70092",
"H c #B20391",
"J c #BA0692",
"K c #A900A2",
"L c #AA00AD",
"P c #AB00BB",
"I c #C00793",
"U c #FD148B",
"Y c #FD158E",
"T c #EE169A",
"R c #EF179A",
"E c #FF1996",
"W c #FD1B9C",
"Q c #FF1B9C",
"! c #B804DA",
"~ c #A900E9",
"^ c #AE00EB",
"/ c #B000E3",
"( c #B000EB",
/* pixels */
"                                ",
"                                ",
"                                ",
"               QQ               ",
"              QQQQ              ",
"             QQQQQQ             ",
"             QQQQQQ             ",
"            QQQQQQQQ            ",
"  QQQ       QQQQQQQQ       QQQ  ",
"   QQQ      QQQQQQQQ      QQQ   ",
"   QQQQQ   QQQQQQQQQQ   QQQQQ   ",
"   QQQQQQ  QQQQQQQQQQ  QQQQQQ   ",
"   QQQQQQQQQQQQQQQQQQQQQQQQQQ   ",
"   QQQQQQQiUQQQQQQQQUiQQQQQQQ   ",
"   QQQQQQQutYQQQQQQYtuQQQQQQQ   ",
"   QQQQQQQutuETFFTEutuQQQQQQQ   ",
" ((!JTQQQQtturDDDDrtttQQQQTJ!(( ",
"  ((GDHTQQttq8eGDe7qttQQTHDG^(  ",
"  ((LDDDIQu0788AA8880uQIFDDL((  ",
"  ((/DDDDF98888ww88879GGDDD/((  ",
"  (((KDDDC*5888778884*CGDDK(((  ",
"   ((/DDS,=&38822883$;,DDD/((   ",
"    ((PGhp>&$58<184$$>phDP((    ",
"    (((Zpd,$$$6<<6$$$pppl(((    ",
"     (^Vdpp=$$%<<%$$=ppcV^(     ",
"      ~Vmdp,$$+oo+$$,pzVV~      ",
"        Vmfp;$@..@$;pcVV        ",
"         VVkp*#..#&gmVV         ",
"            xp>OO;kb            ",
"                                ",
"                                ",
"                                "
};
