/* XPM */
static char *_3f7d5ff79dd4049f0cd572ca58e9806cdGuAOcPuhIoMRTm[] = {
/* columns rows colors chars-per-pixel */
"16 16 70 1 ",
"  c None",
". c #600031",
"X c #600035",
"o c #7D0033",
"O c #790034",
"+ c #63004E",
"@ c #64004E",
"# c #65004E",
"$ c #640053",
"% c #690050",
"& c #6A0051",
"* c #650059",
"= c #65005D",
"- c #65005F",
"; c #68006D",
": c #690075",
"> c #950039",
", c #94003E",
"< c #9B004B",
"1 c #940054",
"2 c #9B0050",
"3 c #990054",
"4 c #9D0054",
"5 c #9E0058",
"6 c #9F005E",
"7 c #AA0056",
"8 c #B50157",
"9 c #C00159",
"0 c #C80159",
"q c #F8005C",
"w c #F8005D",
"e c #F8015E",
"r c #6D0080",
"t c #6C008C",
"y c #710082",
"u c #6D0095",
"i c #6F00BB",
"p c #7000C1",
"a c #7100D1",
"s c #7100D2",
"d c #7700D4",
"f c #7D00D7",
"g c #9E008D",
"h c #A50084",
"j c #A70089",
"k c #A2008E",
"l c #A7008F",
"z c #A70092",
"x c #A80098",
"c c #B70591",
"v c #B80693",
"b c #BA0692",
"n c #9800A5",
"m c #A000A5",
"M c #C4078D",
"N c #FC1083",
"B c #FD148B",
"V c #E41298",
"C c #EA1599",
"Z c #EB1599",
"A c #FE1792",
"S c #FE1793",
"D c #FF1794",
"F c #F0179A",
"G c #FF1B9C",
"H c #AC00C2",
"J c #AE00D1",
"K c #B904D7",
"L c #B402E5",
"P c #B000EB",
/* pixels */
"                ",
"                ",
"       GG       ",
"      GGGG      ",
" GG   GGGG   GG ",
" GGG GGGGGG GGG ",
" GGGGAGGGGAGGGG ",
"  GGGeNZVBeGGGG ",
" LcZGe0hj9eAFbK ",
" Pxlc845647MlzP ",
" PJzk%1<<3%glHP ",
"  Pmy*#,>#$rnP  ",
"   ft:+Oo#;id   ",
"    au-X.-pa    ",
"                ",
"                "
};
