/* XPM */
static char *_f822237120947b6b1c0c6443fac46d0Dgwzpz2h1by3fWha[] = {
/* columns rows colors chars-per-pixel */
"64 64 162 2 ",
"   c None",
".  c #5E002E",
"X  c #5E0031",
"o  c #5F0032",
"O  c #5F0033",
"+  c #5F0035",
"@  c #69002E",
"#  c #6F002F",
"$  c #6D0036",
"%  c #60003A",
"&  c #61003E",
"*  c #63004C",
"=  c #63004E",
"-  c #63004F",
";  c #65004E",
":  c #66004F",
">  c #71004F",
",  c #630050",
"<  c #640051",
"1  c #640055",
"2  c #640057",
"3  c #65005A",
"4  c #65005B",
"5  c #65005C",
"6  c #65005D",
"7  c #660061",
"8  c #670066",
"9  c #670067",
"0  c #690074",
"q  c #6B007A",
"w  c #6B007C",
"e  c #6B007D",
"r  c #6B007E",
"t  c #8D0031",
"y  c #8E003F",
"u  c #910031",
"i  c #930031",
"p  c #940033",
"a  c #97003E",
"s  c #97003F",
"d  c #9A004A",
"f  c #830051",
"g  c #840052",
"h  c #8A0052",
"j  c #8B0052",
"k  c #930053",
"l  c #950054",
"z  c #9B0050",
"x  c #9D0052",
"c  c #9C0054",
"v  c #9D0054",
"b  c #9D0055",
"n  c #9E005B",
"m  c #9F005E",
"M  c #A00055",
"N  c #A30055",
"B  c #A50055",
"V  c #AC0055",
"C  c #BA0056",
"Z  c #9F0062",
"A  c #A80163",
"S  c #A30078",
"D  c #CB0058",
"F  c #DD005A",
"G  c #F4005C",
"H  c #F8005C",
"J  c #F8015E",
"K  c #F8015F",
"L  c #F90466",
"P  c #FA0A73",
"I  c #FA0A74",
"U  c #FB0A76",
"Y  c #FB0B77",
"T  c #FB0C7A",
"R  c #FB0D7A",
"E  c #FB0D7B",
"W  c #FC0D7C",
"Q  c #6B0080",
"!  c #6B0081",
"~  c #6B0082",
"^  c #6F0080",
"/  c #6C0089",
"(  c #6C008F",
")  c #7A0084",
"_  c #7F008A",
"`  c #6D0090",
"'  c #6D0091",
"]  c #6D0093",
"[  c #6D0098",
"{  c #6D009A",
"}  c #6D00A2",
"|  c #6E00A4",
" . c #6E00AA",
".. c #7A00A9",
"X. c #6F00B2",
"o. c #6F00B7",
"O. c #6F00B8",
"+. c #6F00BE",
"@. c #6F00C1",
"#. c #7000C0",
"$. c #7000C4",
"%. c #7100C7",
"&. c #7100C8",
"*. c #7100CC",
"=. c #7100D0",
"-. c #7100D1",
";. c #7100D2",
":. c #7400D3",
">. c #7500D4",
",. c #7800D5",
"<. c #7D00D7",
"1. c #93008A",
"2. c #94008A",
"3. c #99008C",
"4. c #A50082",
"5. c #A50084",
"6. c #A7008B",
"7. c #A1008E",
"8. c #A6008F",
"9. c #A7008F",
"0. c #A8008F",
"q. c #A9018F",
"w. c #BD0486",
"e. c #A70090",
"r. c #AE0290",
"t. c #A80097",
"y. c #A80099",
"u. c #A8009F",
"i. c #B00390",
"p. c #A900A0",
"a. c #A900A2",
"s. c #A900A5",
"d. c #C10893",
"f. c #C40993",
"g. c #C60A94",
"h. c #CA0B94",
"j. c #D10D95",
"k. c #DA0F97",
"l. c #DC1097",
"z. c #FC0F80",
"x. c #FD1185",
"c. c #FD1287",
"v. c #FD1389",
"b. c #E11298",
"n. c #FE1793",
"m. c #F2179A",
"M. c #F51998",
"N. c #F5199A",
"B. c #FB199C",
"V. c #FC1A9C",
"C. c #FD1B9C",
"Z. c #FF1B9C",
"A. c #AC00C3",
"S. c #AD00C8",
"D. c #AE00CF",
"F. c #AE00D3",
"G. c #AE00DA",
"H. c #9800E2",
"J. c #B000E4",
"K. c #B000E9",
"L. c #B000EB",
"P. c #C407D1",
/* pixels */
"                                                                                                                                ",
"                                                                                                                                ",
"                                                                                                                                ",
"                                                                                                                                ",
"                                                                                                                                ",
"                                                              Z.Z.                                                              ",
"                                                            Z.Z.Z.Z.                                                            ",
"                                                          Z.Z.Z.Z.Z.Z.                                                          ",
"                                                          Z.Z.Z.Z.Z.Z.                                                          ",
"                                                        Z.Z.Z.Z.Z.Z.Z.Z.                                                        ",
"                                                        Z.Z.Z.Z.Z.Z.Z.Z.                                                        ",
"                                                      Z.Z.Z.Z.Z.Z.Z.Z.Z.Z.                                                      ",
"                                                    Z.Z.Z.Z.Z.Z.Z.Z.Z.Z.Z.Z.                                                    ",
"                                                    Z.Z.Z.Z.Z.Z.Z.Z.Z.Z.Z.Z.                                                    ",
"                                                  Z.Z.Z.Z.Z.Z.Z.Z.Z.Z.Z.Z.Z.Z.                                                  ",
"        Z.                                        Z.Z.Z.Z.Z.Z.Z.Z.Z.Z.Z.Z.Z.Z.                                        Z.        ",
"        Z.Z.Z.                                  Z.Z.Z.Z.Z.Z.Z.Z.Z.Z.Z.Z.Z.Z.Z.Z.                                  Z.Z.Z.        ",
"        Z.Z.Z.Z.                                Z.Z.Z.Z.Z.Z.Z.Z.Z.Z.Z.Z.Z.Z.Z.Z.                                Z.Z.Z.Z.        ",
"        Z.Z.Z.Z.Z.Z.                          Z.Z.Z.Z.Z.Z.Z.Z.Z.Z.Z.Z.Z.Z.Z.Z.Z.Z.                          Z.Z.Z.Z.Z.Z.        ",
"        Z.Z.Z.Z.Z.Z.Z.Z.                      Z.Z.Z.Z.Z.Z.Z.Z.Z.Z.Z.Z.Z.Z.Z.Z.Z.Z.                      Z.Z.Z.Z.Z.Z.Z.Z.        ",
"        Z.Z.Z.Z.Z.Z.Z.Z.Z.                    Z.Z.Z.Z.Z.Z.Z.Z.Z.Z.Z.Z.Z.Z.Z.Z.Z.Z.                    Z.Z.Z.Z.Z.Z.Z.Z.Z.        ",
"          Z.Z.Z.Z.Z.Z.Z.Z.Z.                Z.Z.Z.Z.Z.Z.Z.Z.Z.Z.Z.Z.Z.Z.Z.Z.Z.Z.Z.Z.                Z.Z.Z.Z.Z.Z.Z.Z.Z.          ",
"          Z.Z.Z.Z.Z.Z.Z.Z.Z.Z.Z.            Z.Z.Z.Z.Z.Z.Z.Z.Z.Z.Z.Z.Z.Z.Z.Z.Z.Z.Z.Z.            Z.Z.Z.Z.Z.Z.Z.Z.Z.Z.Z.          ",
"          Z.Z.Z.Z.Z.Z.Z.Z.Z.Z.Z.Z.          Z.Z.Z.Z.Z.Z.Z.Z.Z.Z.Z.Z.Z.Z.Z.Z.Z.Z.Z.Z.          Z.Z.Z.Z.Z.Z.Z.Z.Z.Z.Z.Z.          ",
"          Z.Z.Z.Z.Z.Z.Z.Z.Z.Z.Z.Z.Z.      Z.Z.Z.Z.Z.Z.Z.Z.Z.Z.Z.Z.Z.Z.Z.Z.Z.Z.Z.Z.Z.Z.      Z.Z.Z.Z.Z.Z.Z.Z.Z.Z.Z.Z.Z.          ",
"          Z.Z.Z.Z.Z.Z.Z.Z.Z.Z.Z.Z.Z.Z.    Z.Z.Z.Z.Z.Z.Z.Z.Z.Z.Z.Z.Z.Z.Z.Z.Z.Z.Z.Z.Z.Z.    Z.Z.Z.Z.Z.Z.Z.Z.Z.Z.Z.Z.Z.Z.          ",
"          Z.Z.Z.Z.Z.Z.Z.Z.Z.Z.Z.Z.Z.Z.Z.Z.Z.Z.Z.Z.Z.Z.Z.Z.Z.Z.Z.Z.Z.Z.Z.Z.Z.Z.Z.Z.Z.Z.Z.Z.Z.Z.Z.Z.Z.Z.Z.Z.Z.Z.Z.Z.Z.Z.          ",
"          Z.Z.Z.Z.Z.Z.Z.Z.Z.Z.Z.Z.Z.Z.Z.U E Z.Z.Z.Z.Z.Z.Z.Z.Z.Z.Z.Z.Z.Z.Z.Z.Z.Z.Z.Z.E U Z.Z.Z.Z.Z.Z.Z.Z.Z.Z.Z.Z.Z.Z.Z.          ",
"            Z.Z.Z.Z.Z.Z.Z.Z.Z.Z.Z.Z.Z.Z.L H E Z.Z.Z.Z.Z.Z.Z.Z.Z.Z.Z.Z.Z.Z.Z.Z.Z.Z.E H L Z.Z.Z.Z.Z.Z.Z.Z.Z.Z.Z.Z.Z.Z.            ",
"            Z.Z.Z.Z.Z.Z.Z.Z.Z.Z.Z.Z.Z.Z.H H H E Z.Z.Z.Z.Z.Z.Z.Z.Z.Z.Z.Z.Z.Z.Z.Z.E H H H Z.Z.Z.Z.Z.Z.Z.Z.Z.Z.Z.Z.Z.Z.            ",
"            Z.Z.Z.Z.Z.Z.Z.Z.Z.Z.Z.Z.Z.Z.H H H H z.Z.Z.Z.Z.Z.Z.N.N.Z.Z.Z.Z.Z.Z.z.H H H H Z.Z.Z.Z.Z.Z.Z.Z.Z.Z.Z.Z.Z.Z.            ",
"            Z.Z.Z.Z.Z.Z.Z.Z.Z.Z.Z.Z.Z.n.H H H H H v.Z.Z.Z.Z.l.9.9.l.Z.Z.Z.Z.v.H H H H H n.Z.Z.Z.Z.Z.Z.Z.Z.Z.Z.Z.Z.Z.            ",
"    L.L.    Z.Z.Z.Z.Z.Z.Z.Z.Z.Z.Z.Z.Z.c.H H H H H H n.Z.Z.d.9.9.9.9.d.Z.Z.n.H H H H H H v.Z.Z.Z.Z.Z.Z.Z.Z.Z.Z.Z.Z.Z.    L.L.    ",
"    L.L.L.L.P.b.Z.Z.Z.Z.Z.Z.Z.Z.Z.Z.Z.E H H H H H H H M.q.9.9.9.9.9.9.r.N.H H H H H H H W Z.Z.Z.Z.Z.Z.Z.Z.Z.Z.Z.b.P.L.L.L.L.    ",
"    L.L.L.L.L.e.9.h.Z.Z.Z.Z.Z.Z.Z.Z.Z.U H H H H H H F A q.q.9.9.9.9.9.9.A F H H H H H H U Z.Z.Z.Z.Z.Z.Z.Z.Z.h.q.e.L.L.L.L.L.    ",
"    L.L.L.L.L.u.9.9.9.d.B.Z.Z.Z.Z.Z.Z.P H H H H H D b x S 9.9.9.9.9.9.S b b D H H H H H P Z.Z.Z.Z.Z.Z.B.d.9.9.9.u.L.L.L.L.L.    ",
"    L.L.L.L.L.S.9.9.9.9.9.g.Z.Z.Z.Z.Z.P H H H H C b x b b 9.9.9.9.9.6.b x x b C H H H H P Z.Z.Z.Z.Z.g.9.9.9.9.9.S.L.L.L.L.L.    ",
"    L.L.L.L.L.L.e.9.9.9.9.9.9.k.Z.Z.Z.U H H H V b b x b x Z 9.9.9.9.Z b b b x b V G H H U Z.Z.Z.k.9.9.9.9.9.9.9.L.L.L.L.L.L.    ",
"      L.L.L.L.L.s.9.9.9.9.9.9.9.i.m.Z.E H G B b b x b b b b 5.9.9.5.b x b x b b x B G H E Z.m.i.9.9.9.9.9.9.9.s.L.L.L.L.L.      ",
"      L.L.L.L.L.G.9.9.9.9.9.9.9.q.q.h.c.H N b x b b b x x b n e.9.n b x b b b x b x N G x.j.9.9.9.9.9.9.9.9.9.G.L.L.L.L.L.      ",
"      L.L.L.L.L.L.y.9.9.9.9.9.9.9.9.9.w.N b b b b b x x b b x 4.4.x b b b x b b b b x b w.9.9.9.9.9.9.9.9.9.y.L.L.L.L.L.L.      ",
"        L.L.L.L.L.D.9.9.9.9.9.9.9.9.e.1.* k x b x b b b b x b m m b b x b x b x x b l < 1.9.9.9.9.9.9.9.9.9.D.L.L.L.L.L.        ",
"        L.L.L.L.L.L.t.e.9.9.9.9.9.9.3.Q , = h b x b b b b b x x x b b x b b x b x h * < Q 3.9.9.9.9.9.9.9.t.L.L.L.L.L.L.        ",
"          L.L.L.L.L.F.e.9.9.9.9.9.7.r r 2 = = g b b x x x b b s s x b b x b b x g = = 2 Q Q 7.9.9.9.9.9.9.F.L.L.L.L.L.          ",
"          L.L.L.L.L.L.p.9.9.9.9.e.^ Q Q 8 = = = g x b b b b z p p b b b x b b g = = = 8 Q Q ^ 9.9.9.9.9.p.L.L.L.L.L.L.          ",
"            L.L.L.L.L.J.e.9.9.9.) Q Q Q q = = = = g x b b b d i p d x b x b g = = = = q Q Q Q ) 9.9.9.e.J.L.L.L.L.L.            ",
"              L.L.L.L.L.A.9.9.1.Q Q Q Q Q , = = = = h b b b s i p s x b b h = = = = , Q Q Q Q Q 1.e.9.A.L.L.L.L.L.              ",
"              L.L.L.L.L.L.p.9.Q Q Q Q Q Q 3 = = = = = l b x p i p p b x l = = = = = 5 Q Q Q Q Q Q e.p.L.L.L.L.L.L.              ",
"                L.L.L.L.L.L._ r Q Q Q Q Q 0 = = = = = * z b p i i i x z * = = = = = 0 Q Q Q Q Q Q ..L.L.L.L.L.L.                ",
"                  L.L.L.L.H.&.Q Q Q Q Q Q Q = = = = < * > d p i i p d : * = = = = = Q Q Q Q Q r } ;.H.L.L.L.L.                  ",
"                    L.L.L.<.;.+.Q Q Q Q Q Q 7 = = = * < = y i i i i d * < * = = = 7 Q Q Q Q r [ ;.;.<.L.L.L.                    ",
"                      L.L.>.;.;.O.Q Q Q Q Q r = = = = = = $ i p i i $ = < * = = = r Q Q Q Q ] ;.;.;.:.L.L.                      ",
"                        L.:.;.;.;.X.Q Q Q Q Q 3 = = = = = X # p i # X = = = = = 5 Q Q Q r ] ;.;.;.;.:.L.                        ",
"                          ,.;.;.;.;.X.Q Q Q Q r = = = = * X . t t . X = = = = = r r Q Q ] ;.;.;.;.;.,.                          ",
"                              ;.;.;.;.O.Q Q Q Q 8 = = = < X . @ @ . X = = = = 8 Q Q Q { ;.;.;.;.;.                              ",
"                                ;.;.;.;.@.Q Q Q Q 2 = = = + . . . . + = = = 2 Q Q Q  .;.;.;.;.;.                                ",
"                                    ;.;.;.*./ Q Q r , = = & . . . . & = = , r Q Q #.;.;.;.;.                                    ",
"                                        ;.;.;.| Q r r < = = . . . . = = < q r { ;.;.;.;.                                        ",
"                                              ;.&.( Q r 3 = % . . + , 5 r ] $.;.;.                                              ",
"                                                            5 & & 5                                                             ",
"                                                                                                                                ",
"                                                                                                                                ",
"                                                                                                                                ",
"                                                                                                                                "
};
